<?xml version="1.0" encoding="UTF-8" standalone="no"?>
<!DOCTYPE svg PUBLIC "-//W3C//DTD SVG 1.1//EN"
 "http://www.w3.org/Graphics/SVG/1.1/DTD/svg11.dtd">
<!-- Generated by graphviz version 2.42.3 (0)
 -->
<!-- Title: flow Pages: 1 -->
<svg width="2245pt" height="318pt"
 viewBox="0.00 0.00 2244.71 318.00" xmlns="http://www.w3.org/2000/svg" xmlns:xlink="http://www.w3.org/1999/xlink">
<g id="graph0" class="graph" transform="scale(1 1) rotate(0) translate(4 314)">
<title>flow</title>
<polygon fill="white" stroke="transparent" points="-4,4 -4,-314 2240.71,-314 2240.71,4 -4,4"/>
<g id="clust1" class="cluster">
<title>cluster_inputs</title>
<polygon fill="none" stroke="black" points="8,-8 8,-137 203.38,-137 203.38,-8 8,-8"/>
<text text-anchor="middle" x="105.69" y="-121.8" font-family="Times,serif" font-size="14.00">inputs</text>
</g>
<g id="clust2" class="cluster">
<title>cluster_outputs</title>
<polygon fill="none" stroke="black" points="2060.62,-113 2060.62,-188 2228.71,-188 2228.71,-113 2060.62,-113"/>
<text text-anchor="middle" x="2144.66" y="-172.8" font-family="Times,serif" font-size="14.00">outputs</text>
</g>
<g id="clust3" class="cluster">
<title>cluster_fast</title>
<polygon fill="none" stroke="black" points="215.38,-105 215.38,-302 2048.62,-302 2048.62,-105 215.38,-105"/>
<text text-anchor="middle" x="1132" y="-286.8" font-family="Times,serif" font-size="14.00">fast</text>
</g>
<g id="clust4" class="cluster">
<title>cluster_localization</title>
<polygon fill="none" stroke="black" stroke-dasharray="5,2" points="223.38,-113 223.38,-242 563.17,-242 563.17,-113 223.38,-113"/>
<text text-anchor="middle" x="393.28" y="-226.8" font-family="Times,serif" font-size="14.00">localization</text>
</g>
<g id="clust5" class="cluster">
<title>cluster_motion_queue</title>
<polygon fill="none" stroke="black" stroke-dasharray="5,2" points="583.17,-119 583.17,-214 1250.04,-214 1250.04,-119 583.17,-119"/>
<text text-anchor="middle" x="916.6" y="-198.8" font-family="Times,serif" font-size="14.00">motion_queue</text>
</g>
<g id="clust6" class="cluster">
<title>cluster_motion_control</title>
<polygon fill="none" stroke="black" stroke-dasharray="5,2" points="1270.04,-113 1270.04,-242 2040.62,-242 2040.62,-113 1270.04,-113"/>
<text text-anchor="middle" x="1655.33" y="-226.8" font-family="Times,serif" font-size="14.00">motion_control</text>
</g>
<g id="clust7" class="cluster">
<title>cluster_slow</title>
<polygon fill="none" stroke="black" points="232.88,-22 232.88,-97 1231.19,-97 1231.19,-22 232.88,-22"/>
<text text-anchor="middle" x="732.04" y="-81.8" font-family="Times,serif" font-size="14.00">slow</text>
</g>
<!-- distance_sensors -->
<g id="node1" class="node">
<title>distance_sensors</title>
<ellipse fill="none" stroke="black" cx="105.69" cy="-88" rx="89.88" ry="18"/>
<text text-anchor="middle" x="105.69" y="-84.3" font-family="Times,serif" font-size="14.00">distance_sensors</text>
</g>
<!-- localization -->
<g id="node4" class="node">
<title>localization</title>
<polygon fill="none" stroke="black" points="329.38,-157 231.38,-157 231.38,-121 329.38,-121 329.38,-157"/>
<text text-anchor="middle" x="280.38" y="-135.3" font-family="Times,serif" font-size="14.00">localization</text>
</g>
<!-- distance_sensors&#45;&gt;localization -->
<g id="edge2" class="edge">
<title>distance_sensors&#45;&gt;localization</title>
<path fill="none" stroke="black" d="M157.11,-102.89C177.3,-108.85 200.69,-115.76 221.57,-121.93"/>
<polygon fill="black" stroke="black" points="220.7,-125.32 231.28,-124.79 222.68,-118.61 220.7,-125.32"/>
</g>
<!-- mapping -->
<g id="node19" class="node">
<title>mapping</title>
<polygon fill="none" stroke="black" points="319.88,-66 240.88,-66 240.88,-30 319.88,-30 319.88,-66"/>
<text text-anchor="middle" x="280.38" y="-44.3" font-family="Times,serif" font-size="14.00">mapping</text>
</g>
<!-- distance_sensors&#45;&gt;mapping -->
<g id="edge25" class="edge">
<title>distance_sensors&#45;&gt;mapping</title>
<path fill="none" stroke="black" d="M165.16,-74.46C186.5,-69.51 210.4,-63.98 230.79,-59.26"/>
<polygon fill="black" stroke="black" points="231.84,-62.6 240.8,-56.94 230.26,-55.78 231.84,-62.6"/>
</g>
<!-- encoders -->
<g id="node2" class="node">
<title>encoders</title>
<ellipse fill="none" stroke="black" cx="105.69" cy="-34" rx="52.79" ry="18"/>
<text text-anchor="middle" x="105.69" y="-30.3" font-family="Times,serif" font-size="14.00">encoders</text>
</g>
<!-- encoders&#45;&gt;localization -->
<g id="edge1" class="edge">
<title>encoders&#45;&gt;localization</title>
<path fill="none" stroke="black" d="M157.04,-38.32C173.64,-42.07 191,-48.86 203.38,-61 216.63,-74 203.96,-86.37 215.38,-101 219.55,-106.34 224.7,-111.08 230.24,-115.25"/>
<polygon fill="black" stroke="black" points="228.36,-118.2 238.59,-120.95 232.31,-112.42 228.36,-118.2"/>
</g>
<!-- motor_control -->
<g id="node18" class="node">
<title>motor_control</title>
<polygon fill="none" stroke="black" points="2032.62,-157 1916.62,-157 1916.62,-121 2032.62,-121 2032.62,-157"/>
<text text-anchor="middle" x="1974.62" y="-135.3" font-family="Times,serif" font-size="14.00">motor_control</text>
</g>
<!-- encoders&#45;&gt;motor_control -->
<g id="edge23" class="edge">
<title>encoders&#45;&gt;motor_control</title>
<path fill="none" stroke="black" d="M153.4,-26.28C172.56,-23.33 194.99,-20.17 215.38,-18 323.41,-6.52 350.65,-2 459.28,-2 459.28,-2 459.28,-2 1612.24,-2 1738.54,-2 1874.5,-76.08 1937.62,-115.29"/>
<polygon fill="black" stroke="black" points="1936.06,-118.45 1946.39,-120.81 1939.79,-112.52 1936.06,-118.45"/>
</g>
<!-- wheel_powers -->
<g id="node3" class="node">
<title>wheel_powers</title>
<ellipse fill="none" stroke="black" cx="2144.66" cy="-139" rx="76.09" ry="18"/>
<text text-anchor="middle" x="2144.66" y="-135.3" font-family="Times,serif" font-size="14.00">wheel_powers</text>
</g>
<!-- global_orientation -->
<g id="node5" class="node">
<title>global_orientation</title>
<ellipse fill="none" stroke="black" cx="460.28" cy="-193" rx="94.78" ry="18"/>
<text text-anchor="middle" x="460.28" y="-189.3" font-family="Times,serif" font-size="14.00">global_orientation</text>
</g>
<!-- localization&#45;&gt;global_orientation -->
<g id="edge3" class="edge">
<title>localization&#45;&gt;global_orientation</title>
<path fill="none" stroke="black" d="M329.72,-154.82C341.38,-158.56 353.81,-162.48 365.38,-166 375.47,-169.07 386.19,-172.24 396.64,-175.28"/>
<polygon fill="black" stroke="black" points="395.97,-178.73 406.55,-178.15 397.92,-172.01 395.97,-178.73"/>
</g>
<!-- maze_orientation -->
<g id="node6" class="node">
<title>maze_orientation</title>
<ellipse fill="none" stroke="black" cx="460.28" cy="-139" rx="90.98" ry="18"/>
<text text-anchor="middle" x="460.28" y="-135.3" font-family="Times,serif" font-size="14.00">maze_orientation</text>
</g>
<!-- localization&#45;&gt;maze_orientation -->
<g id="edge4" class="edge">
<title>localization&#45;&gt;maze_orientation</title>
<path fill="none" stroke="black" d="M329.52,-139C338.78,-139 348.8,-139 359.02,-139"/>
<polygon fill="black" stroke="black" points="359.28,-142.5 369.28,-139 359.28,-135.5 359.28,-142.5"/>
</g>
<!-- motion_popping -->
<g id="node7" class="node">
<title>motion_popping</title>
<polygon fill="none" stroke="black" points="722.17,-183 591.17,-183 591.17,-147 722.17,-147 722.17,-183"/>
<text text-anchor="middle" x="656.67" y="-161.3" font-family="Times,serif" font-size="14.00">motion_popping</text>
</g>
<!-- global_orientation&#45;&gt;motion_popping -->
<g id="edge5" class="edge">
<title>global_orientation&#45;&gt;motion_popping</title>
<path fill="none" stroke="black" d="M536.43,-182.17C551.1,-180.06 566.48,-177.85 581.13,-175.74"/>
<polygon fill="black" stroke="black" points="581.74,-179.18 591.14,-174.29 580.74,-172.26 581.74,-179.18"/>
</g>
<!-- path_following -->
<g id="node14" class="node">
<title>path_following</title>
<polygon fill="none" stroke="black" points="1671.74,-157 1550.74,-157 1550.74,-121 1671.74,-121 1671.74,-157"/>
<text text-anchor="middle" x="1611.24" y="-135.3" font-family="Times,serif" font-size="14.00">path_following</text>
</g>
<!-- global_orientation&#45;&gt;path_following -->
<g id="edge14" class="edge">
<title>global_orientation&#45;&gt;path_following</title>
<path fill="none" stroke="black" d="M520.5,-206.98C540.32,-211.17 562.6,-215.35 583.17,-218 681.21,-230.63 706.41,-230 805.26,-230 805.26,-230 805.26,-230 1347.54,-230 1384.76,-230 1482.46,-238.54 1514.74,-220 1539.75,-205.64 1528.76,-184.68 1550.74,-166 1552.07,-164.86 1553.47,-163.77 1554.9,-162.71"/>
<polygon fill="black" stroke="black" points="1557.09,-165.46 1563.53,-157.05 1553.25,-159.61 1557.09,-165.46"/>
</g>
<!-- turning -->
<g id="node17" class="node">
<title>turning</title>
<polygon fill="none" stroke="black" points="1646.24,-211 1576.24,-211 1576.24,-175 1646.24,-175 1646.24,-211"/>
<text text-anchor="middle" x="1611.24" y="-189.3" font-family="Times,serif" font-size="14.00">turning</text>
</g>
<!-- global_orientation&#45;&gt;turning -->
<g id="edge18" class="edge">
<title>global_orientation&#45;&gt;turning</title>
<path fill="none" stroke="black" d="M500.34,-209.42C523.9,-218.57 554.76,-229.25 583.17,-235 680.14,-254.62 706.33,-250 805.26,-250 805.26,-250 805.26,-250 1347.54,-250 1422.15,-250 1442.48,-253.6 1514.74,-235 1532.48,-230.43 1551.11,-222.92 1567.16,-215.5"/>
<polygon fill="black" stroke="black" points="1568.75,-218.62 1576.28,-211.16 1565.75,-212.29 1568.75,-218.62"/>
</g>
<!-- maze_orientation&#45;&gt;mapping -->
<g id="edge26" class="edge">
<title>maze_orientation&#45;&gt;mapping</title>
<path fill="none" stroke="black" d="M415.55,-123.17C399.49,-116.88 381.35,-109.18 365.38,-101 348.58,-92.39 330.78,-81.44 315.92,-71.74"/>
<polygon fill="black" stroke="black" points="317.8,-68.79 307.53,-66.2 313.94,-74.63 317.8,-68.79"/>
</g>
<!-- navigation -->
<g id="node21" class="node">
<title>navigation</title>
<polygon fill="none" stroke="black" points="702.67,-66 610.67,-66 610.67,-30 702.67,-30 702.67,-66"/>
<text text-anchor="middle" x="656.67" y="-44.3" font-family="Times,serif" font-size="14.00">navigation</text>
</g>
<!-- maze_orientation&#45;&gt;navigation -->
<g id="edge29" class="edge">
<title>maze_orientation&#45;&gt;navigation</title>
<path fill="none" stroke="black" d="M507.58,-123.54C525.24,-117.17 545.39,-109.34 563.17,-101 581.69,-92.31 601.46,-81.25 617.95,-71.47"/>
<polygon fill="black" stroke="black" points="619.97,-74.35 626.74,-66.2 616.37,-68.34 619.97,-74.35"/>
</g>
<!-- motions -->
<g id="node8" class="node">
<title>motions</title>
<ellipse fill="none" stroke="black" cx="806.26" cy="-145" rx="48.19" ry="18"/>
<text text-anchor="middle" x="806.26" y="-141.3" font-family="Times,serif" font-size="14.00">motions</text>
</g>
<!-- motion_popping&#45;&gt;motions -->
<g id="edge6" class="edge">
<title>motion_popping&#45;&gt;motions</title>
<path fill="none" stroke="black" d="M722.4,-156.23C731.75,-154.96 741.29,-153.67 750.41,-152.43"/>
<polygon fill="black" stroke="black" points="751.06,-155.88 760.5,-151.07 750.12,-148.94 751.06,-155.88"/>
</g>
<!-- motion_queuing -->
<g id="node9" class="node">
<title>motion_queuing</title>
<polygon fill="none" stroke="black" points="1023.36,-163 892.36,-163 892.36,-127 1023.36,-127 1023.36,-163"/>
<text text-anchor="middle" x="957.86" y="-141.3" font-family="Times,serif" font-size="14.00">motion_queuing</text>
</g>
<!-- motions&#45;&gt;motion_queuing -->
<g id="edge7" class="edge">
<title>motions&#45;&gt;motion_queuing</title>
<path fill="none" stroke="black" d="M854.6,-145C863.4,-145 872.79,-145 882.17,-145"/>
<polygon fill="black" stroke="black" points="882.33,-148.5 892.33,-145 882.33,-141.5 882.33,-148.5"/>
</g>
<!-- updated_motions -->
<g id="node10" class="node">
<title>updated_motions</title>
<ellipse fill="none" stroke="black" cx="1151.7" cy="-145" rx="90.18" ry="18"/>
<text text-anchor="middle" x="1151.7" y="-141.3" font-family="Times,serif" font-size="14.00">updated_motions</text>
</g>
<!-- motion_queuing&#45;&gt;updated_motions -->
<g id="edge8" class="edge">
<title>motion_queuing&#45;&gt;updated_motions</title>
<path fill="none" stroke="black" d="M1023.54,-145C1032.41,-145 1041.67,-145 1050.99,-145"/>
<polygon fill="black" stroke="black" points="1051.1,-148.5 1061.1,-145 1051.1,-141.5 1051.1,-148.5"/>
</g>
<!-- updated_motions&#45;&gt;motion_popping -->
<g id="edge9" class="edge">
<title>updated_motions&#45;&gt;motion_popping</title>
<path fill="none" stroke="black" d="M1096.51,-159.3C1074.58,-164.4 1048.93,-169.49 1025.36,-172 924.4,-182.75 806.99,-177.44 732.52,-171.88"/>
<polygon fill="black" stroke="black" points="732.55,-168.37 722.31,-171.1 732.01,-175.35 732.55,-168.37"/>
</g>
<!-- motion_directing -->
<g id="node11" class="node">
<title>motion_directing</title>
<polygon fill="none" stroke="black" points="1415.04,-163 1278.04,-163 1278.04,-127 1415.04,-127 1415.04,-163"/>
<text text-anchor="middle" x="1346.54" y="-141.3" font-family="Times,serif" font-size="14.00">motion_directing</text>
</g>
<!-- updated_motions&#45;&gt;motion_directing -->
<g id="edge10" class="edge">
<title>updated_motions&#45;&gt;motion_directing</title>
<path fill="none" stroke="black" d="M1242.07,-145C1250.61,-145 1259.23,-145 1267.65,-145"/>
<polygon fill="black" stroke="black" points="1267.81,-148.5 1277.81,-145 1267.81,-141.5 1267.81,-148.5"/>
</g>
<!-- path -->
<g id="node12" class="node">
<title>path</title>
<ellipse fill="none" stroke="black" cx="1482.89" cy="-139" rx="31.7" ry="18"/>
<text text-anchor="middle" x="1482.89" y="-135.3" font-family="Times,serif" font-size="14.00">path</text>
</g>
<!-- motion_directing&#45;&gt;path -->
<g id="edge11" class="edge">
<title>motion_directing&#45;&gt;path</title>
<path fill="none" stroke="black" d="M1415.11,-141.98C1423.93,-141.59 1432.74,-141.19 1440.94,-140.83"/>
<polygon fill="black" stroke="black" points="1441.11,-144.32 1450.94,-140.38 1440.8,-137.33 1441.11,-144.32"/>
</g>
<!-- turn -->
<g id="node13" class="node">
<title>turn</title>
<ellipse fill="none" stroke="black" cx="1482.89" cy="-193" rx="30.59" ry="18"/>
<text text-anchor="middle" x="1482.89" y="-189.3" font-family="Times,serif" font-size="14.00">turn</text>
</g>
<!-- motion_directing&#45;&gt;turn -->
<g id="edge12" class="edge">
<title>motion_directing&#45;&gt;turn</title>
<path fill="none" stroke="black" d="M1397.95,-163.01C1414.16,-168.8 1431.77,-175.09 1446.65,-180.41"/>
<polygon fill="black" stroke="black" points="1445.87,-183.85 1456.46,-183.92 1448.23,-177.26 1445.87,-183.85"/>
</g>
<!-- path&#45;&gt;path_following -->
<g id="edge13" class="edge">
<title>path&#45;&gt;path_following</title>
<path fill="none" stroke="black" d="M1514.8,-139C1522.65,-139 1531.42,-139 1540.37,-139"/>
<polygon fill="black" stroke="black" points="1540.51,-142.5 1550.51,-139 1540.51,-135.5 1540.51,-142.5"/>
</g>
<!-- turn&#45;&gt;turning -->
<g id="edge17" class="edge">
<title>turn&#45;&gt;turning</title>
<path fill="none" stroke="black" d="M1513.51,-193C1528.98,-193 1548.22,-193 1565.46,-193"/>
<polygon fill="black" stroke="black" points="1565.88,-196.5 1575.88,-193 1565.88,-189.5 1565.88,-196.5"/>
</g>
<!-- wheel_velocities -->
<g id="node15" class="node">
<title>wheel_velocities</title>
<ellipse fill="none" stroke="black" cx="1794.18" cy="-139" rx="86.38" ry="18"/>
<text text-anchor="middle" x="1794.18" y="-135.3" font-family="Times,serif" font-size="14.00">wheel_velocities</text>
</g>
<!-- path_following&#45;&gt;wheel_velocities -->
<g id="edge15" class="edge">
<title>path_following&#45;&gt;wheel_velocities</title>
<path fill="none" stroke="black" d="M1671.99,-139C1680.2,-139 1688.79,-139 1697.45,-139"/>
<polygon fill="black" stroke="black" points="1697.63,-142.5 1707.63,-139 1697.63,-135.5 1697.63,-142.5"/>
</g>
<!-- target_direction -->
<g id="node16" class="node">
<title>target_direction</title>
<ellipse fill="none" stroke="black" cx="1794.18" cy="-193" rx="85.29" ry="18"/>
<text text-anchor="middle" x="1794.18" y="-189.3" font-family="Times,serif" font-size="14.00">target_direction</text>
</g>
<!-- path_following&#45;&gt;target_direction -->
<g id="edge16" class="edge">
<title>path_following&#45;&gt;target_direction</title>
<path fill="none" stroke="black" d="M1671.99,-156.83C1692.07,-162.82 1714.44,-169.5 1734.44,-175.47"/>
<polygon fill="black" stroke="black" points="1733.47,-178.83 1744.05,-178.34 1735.47,-172.12 1733.47,-178.83"/>
</g>
<!-- wheel_velocities&#45;&gt;motor_control -->
<g id="edge22" class="edge">
<title>wheel_velocities&#45;&gt;motor_control</title>
<path fill="none" stroke="black" d="M1880.74,-139C1889.39,-139 1898.08,-139 1906.5,-139"/>
<polygon fill="black" stroke="black" points="1906.6,-142.5 1916.6,-139 1906.6,-135.5 1906.6,-142.5"/>
</g>
<!-- target_direction&#45;&gt;localization -->
<g id="edge21" class="edge">
<title>target_direction&#45;&gt;localization</title>
<path fill="none" stroke="black" d="M1742.88,-207.48C1660.84,-229.79 1492.79,-270 1347.54,-270 805.26,-270 805.26,-270 805.26,-270 608.5,-270 542.96,-304.75 365.38,-220 339.26,-207.53 316.14,-183.76 300.8,-165.17"/>
<polygon fill="black" stroke="black" points="303.49,-162.94 294.51,-157.32 298.03,-167.32 303.49,-162.94"/>
</g>
<!-- turning&#45;&gt;wheel_velocities -->
<g id="edge19" class="edge">
<title>turning&#45;&gt;wheel_velocities</title>
<path fill="none" stroke="black" d="M1646.27,-182.84C1671.01,-175.46 1705.13,-165.28 1734.26,-156.58"/>
<polygon fill="black" stroke="black" points="1735.34,-159.91 1743.92,-153.7 1733.34,-153.21 1735.34,-159.91"/>
</g>
<!-- turning&#45;&gt;target_direction -->
<g id="edge20" class="edge">
<title>turning&#45;&gt;target_direction</title>
<path fill="none" stroke="black" d="M1646.27,-193C1661.37,-193 1679.96,-193 1698.78,-193"/>
<polygon fill="black" stroke="black" points="1698.93,-196.5 1708.93,-193 1698.93,-189.5 1698.93,-196.5"/>
</g>
<!-- motor_control&#45;&gt;wheel_powers -->
<g id="edge24" class="edge">
<title>motor_control&#45;&gt;wheel_powers</title>
<path fill="none" stroke="black" d="M2032.98,-139C2041.18,-139 2049.76,-139 2058.36,-139"/>
<polygon fill="black" stroke="black" points="2058.44,-142.5 2068.44,-139 2058.44,-135.5 2058.44,-142.5"/>
</g>
<!-- map -->
<g id="node20" class="node">
<title>map</title>
<ellipse fill="none" stroke="black" cx="460.28" cy="-48" rx="30.59" ry="18"/>
<text text-anchor="middle" x="460.28" y="-44.3" font-family="Times,serif" font-size="14.00">map</text>
</g>
<!-- mapping&#45;&gt;map -->
<g id="edge27" class="edge">
<title>mapping&#45;&gt;map</title>
<path fill="none" stroke="black" d="M319.98,-48C349.42,-48 389.82,-48 419.53,-48"/>
<polygon fill="black" stroke="black" points="419.56,-51.5 429.56,-48 419.56,-44.5 419.56,-51.5"/>
</g>
<!-- map&#45;&gt;navigation -->
<g id="edge28" class="edge">
<title>map&#45;&gt;navigation</title>
<path fill="none" stroke="black" d="M491.22,-48C520.21,-48 564.84,-48 600.29,-48"/>
<polygon fill="black" stroke="black" points="600.5,-51.5 610.5,-48 600.5,-44.5 600.5,-51.5"/>
</g>
<!-- moves -->
<g id="node22" class="node">
<title>moves</title>
<ellipse fill="none" stroke="black" cx="806.26" cy="-48" rx="40.09" ry="18"/>
<text text-anchor="middle" x="806.26" y="-44.3" font-family="Times,serif" font-size="14.00">moves</text>
</g>
<!-- navigation&#45;&gt;moves -->
<g id="edge30" class="edge">
<title>navigation&#45;&gt;moves</title>
<path fill="none" stroke="black" d="M702.75,-48C719.46,-48 738.5,-48 755.59,-48"/>
<polygon fill="black" stroke="black" points="755.95,-51.5 765.95,-48 755.95,-44.5 755.95,-51.5"/>
</g>
<!-- motion_planning -->
<g id="node23" class="node">
<title>motion_planning</title>
<polygon fill="none" stroke="black" points="1025.36,-66 890.36,-66 890.36,-30 1025.36,-30 1025.36,-66"/>
<text text-anchor="middle" x="957.86" y="-44.3" font-family="Times,serif" font-size="14.00">motion_planning</text>
</g>
<!-- moves&#45;&gt;motion_planning -->
<g id="edge31" class="edge">
<title>moves&#45;&gt;motion_planning</title>
<path fill="none" stroke="black" d="M846.57,-48C856.95,-48 868.51,-48 880.14,-48"/>
<polygon fill="black" stroke="black" points="880.34,-51.5 890.34,-48 880.34,-44.5 880.34,-51.5"/>
</g>
<!-- new_motions -->
<g id="node24" class="node">
<title>new_motions</title>
<ellipse fill="none" stroke="black" cx="1151.7" cy="-48" rx="71.49" ry="18"/>
<text text-anchor="middle" x="1151.7" y="-44.3" font-family="Times,serif" font-size="14.00">new_motions</text>
</g>
<!-- motion_planning&#45;&gt;new_motions -->
<g id="edge32" class="edge">
<title>motion_planning&#45;&gt;new_motions</title>
<path fill="none" stroke="black" d="M1025.42,-48C1039.75,-48 1055.05,-48 1069.86,-48"/>
<polygon fill="black" stroke="black" points="1070.01,-51.5 1080.01,-48 1070.01,-44.5 1070.01,-51.5"/>
</g>
<!-- new_motions&#45;&gt;motion_queuing -->
<g id="edge33" class="edge">
<title>new_motions&#45;&gt;motion_queuing</title>
<path fill="none" stroke="black" d="M1118.76,-64.15C1087.29,-80.06 1038.92,-104.52 1003.62,-122.37"/>
<polygon fill="black" stroke="black" points="1001.84,-119.35 994.49,-126.98 1005,-125.59 1001.84,-119.35"/>
</g>
</g>
</svg>
