<?xml version="1.0" encoding="UTF-8" standalone="no"?>
<!DOCTYPE svg PUBLIC "-//W3C//DTD SVG 1.1//EN"
 "http://www.w3.org/Graphics/SVG/1.1/DTD/svg11.dtd">
<!-- Generated by graphviz version 2.44.0 (0)
 -->
<!-- Title: paths Pages: 1 -->
<svg width="1302pt" height="309pt"
 viewBox="0.00 0.00 1301.50 309.00" xmlns="http://www.w3.org/2000/svg" xmlns:xlink="http://www.w3.org/1999/xlink">
<g id="graph0" class="graph" transform="scale(1 1) rotate(0) translate(4 305)">
<title>paths</title>
<polygon fill="white" stroke="transparent" points="-4,4 -4,-305 1297.5,-305 1297.5,4 -4,4"/>
<g id="clust1" class="cluster">
<title>cluster_inputs</title>
<polygon fill="none" stroke="black" points="27.5,-110 27.5,-293 147.49,-293 147.49,-110 27.5,-110"/>
<text text-anchor="middle" x="87.49" y="-277.8" font-family="Times,serif" font-size="14.00">inputs</text>
</g>
<g id="clust2" class="cluster">
<title>cluster_path_curvature</title>
<polygon fill="none" stroke="black" points="8,-8 8,-83 385.62,-83 385.62,-8 8,-8"/>
<text text-anchor="middle" x="196.81" y="-67.8" font-family="Times,serif" font-size="14.00">path_curvature</text>
</g>
<g id="clust3" class="cluster">
<title>cluster_outputs</title>
<polygon fill="none" stroke="black" points="1055.02,-48 1055.02,-177 1285.5,-177 1285.5,-48 1055.02,-48"/>
<text text-anchor="middle" x="1170.26" y="-161.8" font-family="Times,serif" font-size="14.00">outputs</text>
</g>
<!-- path -->
<g id="node1" class="node">
<title>path</title>
<ellipse fill="none" stroke="black" cx="87.49" cy="-136" rx="31.7" ry="18"/>
<text text-anchor="middle" x="87.49" y="-132.3" font-family="Times,serif" font-size="14.00">path</text>
</g>
<!-- binary_search -->
<g id="node4" class="node">
<title>binary_search</title>
<polygon fill="none" stroke="black" points="354.38,-235 238.38,-235 238.38,-199 354.38,-199 354.38,-235"/>
<text text-anchor="middle" x="296.38" y="-213.3" font-family="Times,serif" font-size="14.00">binary_search</text>
</g>
<!-- path&#45;&gt;binary_search -->
<g id="edge1" class="edge">
<title>path&#45;&gt;binary_search</title>
<path fill="none" stroke="black" d="M115.72,-144.44C129.14,-149.1 145.34,-155.46 158.99,-163 176.49,-172.67 177.01,-181.24 194.99,-190 205.4,-195.07 216.91,-199.3 228.3,-202.78"/>
<polygon fill="black" stroke="black" points="227.68,-206.25 238.26,-205.66 229.62,-199.52 227.68,-206.25"/>
</g>
<!-- path_direction -->
<g id="node7" class="node">
<title>path_direction</title>
<ellipse fill="none" stroke="black" cx="296.38" cy="-109" rx="77.19" ry="18"/>
<text text-anchor="middle" x="296.38" y="-105.3" font-family="Times,serif" font-size="14.00">path_direction</text>
</g>
<!-- path&#45;&gt;path_direction -->
<g id="edge5" class="edge">
<title>path&#45;&gt;path_direction</title>
<path fill="none" stroke="black" d="M118.58,-132.07C144.69,-128.67 183.65,-123.58 218.36,-119.05"/>
<polygon fill="black" stroke="black" points="219.03,-122.49 228.49,-117.73 218.13,-115.55 219.03,-122.49"/>
</g>
<!-- path_curvature -->
<g id="node11" class="node">
<title>path_curvature</title>
<ellipse fill="none" stroke="black" cx="296.38" cy="-34" rx="81.49" ry="18"/>
<text text-anchor="middle" x="296.38" y="-30.3" font-family="Times,serif" font-size="14.00">path_curvature</text>
</g>
<!-- path&#45;&gt;path_curvature -->
<g id="edge14" class="edge">
<title>path&#45;&gt;path_curvature</title>
<path fill="none" stroke="black" d="M111.68,-124.05C133.2,-113 166.16,-96.2 194.99,-82 213.41,-72.93 233.85,-63.11 251.45,-54.73"/>
<polygon fill="black" stroke="black" points="253.37,-57.69 260.9,-50.24 250.37,-51.37 253.37,-57.69"/>
</g>
<!-- position -->
<g id="node2" class="node">
<title>position</title>
<ellipse fill="none" stroke="black" cx="87.49" cy="-190" rx="48.19" ry="18"/>
<text text-anchor="middle" x="87.49" y="-186.3" font-family="Times,serif" font-size="14.00">position</text>
</g>
<!-- position&#45;&gt;binary_search -->
<g id="edge2" class="edge">
<title>position&#45;&gt;binary_search</title>
<path fill="none" stroke="black" d="M133.13,-195.83C160.89,-199.45 197.11,-204.18 228.29,-208.24"/>
<polygon fill="black" stroke="black" points="227.85,-211.72 238.22,-209.54 228.75,-204.78 227.85,-211.72"/>
</g>
<!-- distance_from_path -->
<g id="node5" class="node">
<title>distance_from_path</title>
<ellipse fill="none" stroke="black" cx="296.38" cy="-163" rx="101.28" ry="18"/>
<text text-anchor="middle" x="296.38" y="-159.3" font-family="Times,serif" font-size="14.00">distance_from_path</text>
</g>
<!-- position&#45;&gt;distance_from_path -->
<g id="edge3" class="edge">
<title>position&#45;&gt;distance_from_path</title>
<path fill="none" stroke="black" d="M133.13,-184.17C153.91,-181.46 179.42,-178.13 204.01,-174.92"/>
<polygon fill="black" stroke="black" points="204.65,-178.37 214.11,-173.61 203.74,-171.43 204.65,-178.37"/>
</g>
<!-- direction -->
<g id="node3" class="node">
<title>direction</title>
<ellipse fill="none" stroke="black" cx="87.49" cy="-244" rx="51.99" ry="18"/>
<text text-anchor="middle" x="87.49" y="-240.3" font-family="Times,serif" font-size="14.00">direction</text>
</g>
<!-- offset_curvature -->
<g id="node9" class="node">
<title>offset_curvature</title>
<ellipse fill="none" stroke="black" cx="726.5" cy="-136" rx="86.38" ry="18"/>
<text text-anchor="middle" x="726.5" y="-132.3" font-family="Times,serif" font-size="14.00">offset_curvature</text>
</g>
<!-- direction&#45;&gt;offset_curvature -->
<g id="edge9" class="edge">
<title>direction&#45;&gt;offset_curvature</title>
<path fill="none" stroke="black" d="M137.89,-248.79C199.26,-253.65 306.98,-258.57 397.77,-244 501.64,-227.33 617.22,-182.71 679.57,-156.33"/>
<polygon fill="black" stroke="black" points="681.28,-159.4 689.1,-152.26 678.53,-152.97 681.28,-159.4"/>
</g>
<!-- target_direction -->
<g id="node8" class="node">
<title>target_direction</title>
<ellipse fill="none" stroke="black" cx="518.91" cy="-136" rx="85.29" ry="18"/>
<text text-anchor="middle" x="518.91" y="-132.3" font-family="Times,serif" font-size="14.00">target_direction</text>
</g>
<!-- distance_from_path&#45;&gt;target_direction -->
<g id="edge6" class="edge">
<title>distance_from_path&#45;&gt;target_direction</title>
<path fill="none" stroke="black" d="M380.44,-152.83C398.1,-150.67 416.75,-148.39 434.42,-146.22"/>
<polygon fill="black" stroke="black" points="435.2,-149.65 444.7,-144.96 434.35,-142.7 435.2,-149.65"/>
</g>
<!-- closest_point -->
<g id="node6" class="node">
<title>closest_point</title>
<ellipse fill="none" stroke="black" cx="87.49" cy="-34" rx="71.49" ry="18"/>
<text text-anchor="middle" x="87.49" y="-30.3" font-family="Times,serif" font-size="14.00">closest_point</text>
</g>
<!-- closest_point&#45;&gt;distance_from_path -->
<g id="edge4" class="edge">
<title>closest_point&#45;&gt;distance_from_path</title>
<path fill="none" stroke="black" d="M106.14,-51.84C133.65,-79.51 184.67,-130.19 194.99,-136 202.09,-140 209.8,-143.43 217.7,-146.37"/>
<polygon fill="black" stroke="black" points="216.79,-149.76 227.39,-149.71 219.08,-143.14 216.79,-149.76"/>
</g>
<!-- closest_point&#45;&gt;path_curvature -->
<g id="edge15" class="edge">
<title>closest_point&#45;&gt;path_curvature</title>
<path fill="none" stroke="black" d="M159.11,-34C173.9,-34 189.69,-34 205.08,-34"/>
<polygon fill="black" stroke="black" points="205.12,-37.5 215.12,-34 205.12,-30.5 205.12,-37.5"/>
</g>
<!-- path_direction&#45;&gt;target_direction -->
<g id="edge7" class="edge">
<title>path_direction&#45;&gt;target_direction</title>
<path fill="none" stroke="black" d="M365.04,-117.28C386.99,-119.97 411.6,-122.98 434.55,-125.79"/>
<polygon fill="black" stroke="black" points="434.27,-129.29 444.62,-127.03 435.12,-122.34 434.27,-129.29"/>
</g>
<!-- target_direction&#45;&gt;offset_curvature -->
<g id="edge8" class="edge">
<title>target_direction&#45;&gt;offset_curvature</title>
<path fill="none" stroke="black" d="M604.12,-136C612.48,-136 621.01,-136 629.47,-136"/>
<polygon fill="black" stroke="black" points="629.75,-139.5 639.75,-136 629.75,-132.5 629.75,-139.5"/>
</g>
<!-- target_curvature -->
<g id="node10" class="node">
<title>target_curvature</title>
<ellipse fill="none" stroke="black" cx="937.98" cy="-100" rx="89.08" ry="18"/>
<text text-anchor="middle" x="937.98" y="-96.3" font-family="Times,serif" font-size="14.00">target_curvature</text>
</g>
<!-- offset_curvature&#45;&gt;target_curvature -->
<g id="edge10" class="edge">
<title>offset_curvature&#45;&gt;target_curvature</title>
<path fill="none" stroke="black" d="M793.78,-124.61C814.68,-121.02 837.96,-117.02 859.57,-113.3"/>
<polygon fill="black" stroke="black" points="860.43,-116.71 869.69,-111.56 859.24,-109.81 860.43,-116.71"/>
</g>
<!-- left_target_velocity -->
<g id="node12" class="node">
<title>left_target_velocity</title>
<ellipse fill="none" stroke="black" cx="1170.26" cy="-128" rx="100.18" ry="18"/>
<text text-anchor="middle" x="1170.26" y="-124.3" font-family="Times,serif" font-size="14.00">left_target_velocity</text>
</g>
<!-- target_curvature&#45;&gt;left_target_velocity -->
<g id="edge12" class="edge">
<title>target_curvature&#45;&gt;left_target_velocity</title>
<path fill="none" stroke="black" d="M1014.7,-109.21C1034.53,-111.62 1056.13,-114.24 1076.73,-116.75"/>
<polygon fill="black" stroke="black" points="1076.4,-120.23 1086.75,-117.97 1077.24,-113.29 1076.4,-120.23"/>
</g>
<!-- right_target_velocity -->
<g id="node13" class="node">
<title>right_target_velocity</title>
<ellipse fill="none" stroke="black" cx="1170.26" cy="-74" rx="107.48" ry="18"/>
<text text-anchor="middle" x="1170.26" y="-70.3" font-family="Times,serif" font-size="14.00">right_target_velocity</text>
</g>
<!-- target_curvature&#45;&gt;right_target_velocity -->
<g id="edge13" class="edge">
<title>target_curvature&#45;&gt;right_target_velocity</title>
<path fill="none" stroke="black" d="M1015.98,-91.31C1033.52,-89.33 1052.4,-87.19 1070.7,-85.13"/>
<polygon fill="black" stroke="black" points="1071.25,-88.59 1080.79,-83.99 1070.46,-81.63 1071.25,-88.59"/>
</g>
<!-- path_curvature&#45;&gt;target_curvature -->
<g id="edge11" class="edge">
<title>path_curvature&#45;&gt;target_curvature</title>
<path fill="none" stroke="black" d="M370.44,-41.54C488.52,-53.72 720.9,-77.7 848.29,-90.85"/>
<polygon fill="black" stroke="black" points="848.1,-94.35 858.4,-91.89 848.82,-87.38 848.1,-94.35"/>
</g>
</g>
</svg>
